<?xml version="1.0" encoding="UTF-8"?>
<svg version="1.1" xmlns="http://www.w3.org/2000/svg" width="360" height="360">
<path d="M0 0 C4.52532323 -0.37330107 4.52532323 -0.37330107 6.5546875 1.22265625 C21.59848925 22.18606047 25.66664512 48.80419056 27 74 C27.57363281 73.53851563 28.14726562 73.07703125 28.73828125 72.6015625 C34.72624052 68.00382746 40.77504497 64.45732172 47.5 61.0625 C58.9716369 55.20043545 67.51587909 48.02399844 75.80859375 38.1875 C78 36 78 36 79.96484375 34.9296875 C83.26719641 35.0437803 84.75905898 36.92855923 87.125 39.125 C88.42824219 40.30449219 88.42824219 40.30449219 89.7578125 41.5078125 C91.99965316 43.99961449 92.85817231 45.90149486 94 49 C95.6396721 50.36639342 97.30327614 51.70513179 99 53 C99 53.66 99 54.32 99 55 C104.08315438 52.05377512 104.08315438 52.05377512 106.9375 47.1875 C106.958125 46.465625 106.97875 45.74375 107 45 C107.721875 45.020625 108.44375 45.04125 109.1875 45.0625 C111.91925138 45.00179441 114.34256091 44.60741465 117 44 C116.8125 46.25 116.8125 46.25 116 49 C115.20636551 49.59340683 114.41273102 50.18681366 113.595047 50.79820251 C110.51989361 53.40735179 109.85747887 55.15987236 108.66674805 58.97875977 C108.08326347 60.80614182 108.08326347 60.80614182 107.48799133 62.67044067 C107.07890041 64.01066081 106.67015338 65.35098596 106.26171875 66.69140625 C105.82045537 68.09517944 105.3776872 69.49848038 104.93351746 70.90133667 C103.98985901 73.89302978 103.05696826 76.88778719 102.13250732 79.88546753 C100.68567127 84.57693144 99.21478565 89.26063579 97.74072266 93.94360352 C93.74713827 106.64989811 89.81076341 119.37392923 85.87430286 132.09801197 C84.21766509 137.45237394 82.55426626 142.80462301 80.89028931 148.15670776 C79.89264213 151.38049147 78.90788175 154.60800397 77.92456055 157.83618164 C77.32248433 159.78543688 76.72004925 161.73458132 76.1171875 163.68359375 C75.85769821 164.54918915 75.59820892 165.41478455 75.33085632 166.30661011 C73.82762488 171.12244026 72.05241654 174.90889314 69 179 C68.49936035 179.69150146 67.9987207 180.38300293 67.48291016 181.09545898 C56.20110179 195.94646983 43.89211041 209.31566931 30.59228516 222.37158203 C26.74154085 226.16891247 23.12732759 230.0741456 19.65600586 234.22290039 C15.65524051 238.51621765 12.53282606 239.86909673 6.75 240.16796875 C-22.49972361 240.32031106 -48.83453358 224.4002838 -71 206 C-72.54107422 204.75863281 -72.54107422 204.75863281 -74.11328125 203.4921875 C-77.84282549 200.43727444 -81.42756245 197.23621776 -85 194 C-85.8544873 193.23623047 -86.70897461 192.47246094 -87.58935547 191.68554688 C-90.40771558 189.13878229 -93.17557218 186.54525903 -95.9375 183.9375 C-96.845 183.1230542 -97.7525 182.3086084 -98.6875 181.46948242 C-99.52152344 180.66357666 -100.35554688 179.8576709 -101.21484375 179.02734375 C-101.96886475 178.32343506 -102.72288574 177.61952637 -103.49975586 176.89428711 C-107.24873194 169.6617222 -103.27436022 158.5602936 -101.69921875 150.90673828 C-101.46659332 149.75248856 -101.2339679 148.59823883 -100.99429321 147.40901184 C-100.23091114 143.62829808 -99.45926966 139.84932216 -98.6875 136.0703125 C-98.15206828 133.43023936 -97.61841369 130.78980786 -97.0847168 128.14938354 C-95.82629472 121.92861861 -94.56192345 115.70907892 -93.29534054 109.48997104 C-91.85652638 102.42371824 -90.42433499 95.35612844 -88.99271965 88.28841424 C-86.54574824 76.20849761 -84.09402839 64.12955394 -81.63638306 52.05180359 C-81.43451385 51.05954269 -81.23264465 50.0672818 -81.0246582 49.04495239 C-80.76251274 47.75697597 -80.76251274 47.75697597 -80.49507141 46.44297981 C-80.33169785 45.63679647 -80.16832428 44.83061314 -80 44 C-79.78421799 43.10833067 -79.56843597 42.21666134 -79.34611511 41.29797173 C-79.23189713 40.53964106 -79.11767914 39.78131039 -79 39 C-80.33378575 37.1645201 -80.33378575 37.1645201 -82 36 C-81.67 35.01 -81.34 34.02 -81 33 C-75.46153846 33.61538462 -75.46153846 33.61538462 -73.125 35.5625 C-72.75375 36.036875 -72.3825 36.51125 -72 37 C-69.90626198 34.90626198 -69.42741645 33.7419269 -68.5 31 C-67.57258355 28.2580731 -67.09373802 27.09373802 -65 25 C-62.5 25.375 -62.5 25.375 -60 26 C-59.34 26 -58.68 26 -58 26 C-57.34 23.36 -56.68 20.72 -56 18 C-52.01003151 16.83446052 -50.26416557 16.889386 -46.37109375 18.51953125 C-45.04820938 19.26344418 -43.73738422 20.02909046 -42.4375 20.8125 C-41.73786133 21.22193848 -41.03822266 21.63137695 -40.31738281 22.05322266 C-27.97411191 29.44180031 -17.1501148 38.8498852 -7 49 C-5.30850527 38.8843034 -4.22491915 28.76926378 -3.32275391 18.5559082 C-3.14844217 16.60051258 -2.9649507 14.64594217 -2.78125 12.69140625 C-2.6275293 10.97739624 -2.6275293 10.97739624 -2.47070312 9.22875977 C-1.99447957 5.96213294 -1.13915243 3.09202694 0 0 Z M111 48 C112 51 112 51 112 51 Z " fill="#030407" transform="translate(181,68)"/>
<path d="M0 0 C4.8690821 1.98370011 7.93959412 5.91027415 11.54296875 9.61328125 C17.37068513 15.5615117 23.34216953 20.98501081 30 26 C30.94214355 26.72413086 30.94214355 26.72413086 31.90332031 27.46289062 C46.23164348 38.46012799 61.28783559 48.42549263 77.03125 57.29296875 C80 59 80 59 82.75 61.1875 C87.43853184 63.80225814 91.7014142 63.84842354 97 64 C98.18078125 64.03996094 99.3615625 64.07992187 100.578125 64.12109375 C110.49363962 64.30041689 117.23681466 63.11517537 125.125 57.0625 C125.77315674 56.57668457 126.42131348 56.09086914 127.08911133 55.59033203 C131.97272803 51.8896292 136.66716207 47.98829663 141.29980469 43.97998047 C144.71269494 41.03837421 148.2191334 38.32811926 151.875 35.6875 C159.48634112 30.09632717 166.19797745 23.53254351 173 17 C173.33 17.99 173.66 18.98 174 20 C160.05194805 34.64935065 160.05194805 34.64935065 153 37 C152.67 37.99 152.34 38.98 152 40 C150.06640625 41.76171875 150.06640625 41.76171875 147.5625 43.6875 C146.66789063 44.38488281 145.77328125 45.08226562 144.8515625 45.80078125 C143.44003906 46.88939453 143.44003906 46.88939453 142 48 C140.14193499 49.45336318 138.28756949 50.91147241 136.4375 52.375 C135.61121094 53.02210938 134.78492188 53.66921875 133.93359375 54.3359375 C131.90767023 55.86281005 131.90767023 55.86281005 131 58 C129.35178756 59.03013277 127.67888441 60.02065076 126 61 C125.34644531 61.49242187 124.69289062 61.98484375 124.01953125 62.4921875 C118.394579 66.6536566 113.98690015 67.97082714 107 68 C106.96261719 68.59425781 106.92523438 69.18851562 106.88671875 69.80078125 C106.45311889 75.26754031 105.48660813 80.22603392 103.953125 85.48046875 C102.39747475 91.22489857 101.15961464 97.04304804 99.88964844 102.85644531 C98.70824016 108.17941968 97.32477441 113.37535612 95.71875 118.58520508 C94.5664168 122.45671584 93.66028176 126.37831817 92.75 130.3125 C92.31918762 132.13676061 91.88818665 133.96097668 91.45703125 135.78515625 C90.6842337 139.0729117 89.9161959 142.36166812 89.15380859 145.65185547 C88.25622172 149.51978184 87.34727447 153.38492433 86.4375 157.25 C86.15680664 158.47501221 85.87611328 159.70002441 85.58691406 160.9621582 C82.09480716 175.72046713 82.09480716 175.72046713 79 180 C76.87280273 180.73144531 76.87280273 180.73144531 75 181 C75 181.66 75 182.32 75 183 C60.61779992 184.16612433 49.51747666 178.11009527 37.3125 171.125 C35.73758789 170.24521484 35.73758789 170.24521484 34.13085938 169.34765625 C28.27875559 166.03788966 22.6925317 162.52712934 17.24902344 158.57983398 C14.87394829 156.91145455 12.43274588 155.41882389 9.9375 153.9375 C2.35207276 149.18439967 -4.3549181 143.27218858 -11.1862793 137.51635742 C-13.42891828 135.64140376 -15.71669264 133.82505196 -18 132 C-20.98473187 129.59547769 -23.142021 127.37462287 -25 124 C-25.01318359 121.47973633 -25.01318359 121.47973633 -24.4609375 118.58203125 C-24.24977295 117.43178467 -24.0386084 116.28153809 -23.82104492 115.09643555 C-23.54804117 113.73082134 -23.27430315 112.3653538 -23 111 C-22.68563958 109.36582666 -22.37230627 107.73145552 -22.05981445 106.09692383 C-20.96683434 100.43328482 -19.82886151 94.77905361 -18.6875 89.125 C-18.27745889 87.08277323 -17.86746568 85.04053685 -17.45751953 82.99829102 C-15.33747042 72.46409898 -13.16905669 61.94527282 -10.81982422 51.45947266 C-8.4536523 40.76780543 -6.44968285 29.99971868 -4.40966797 19.24194336 C-4.26501602 18.48546005 -4.12036407 17.72897675 -3.97132874 16.9495697 C-3.70026546 15.53184021 -3.43171096 14.11362761 -3.16624451 12.69483948 C-2.33746376 8.37313086 -1.26076734 4.21005629 0 0 Z " fill="#84A0F0" transform="translate(107,115)"/>
<path d="M0 0 C1 2 1 2 0.36547852 4.14233398 C-0.15381226 5.46213257 -0.15381226 5.46213257 -0.68359375 6.80859375 C-3.08869189 13.14949495 -5.09452917 19.5746424 -7.0625 26.0625 C-7.40087891 27.16916016 -7.73925781 28.27582031 -8.08789062 29.41601562 C-9.86669922 35.24101167 -11.62458257 41.07166808 -13.34790039 46.91333008 C-14.16105104 49.51535128 -15.15096034 52.04226473 -16.12890625 54.5859375 C-18.92715098 62.34071439 -21.20255178 70.30281231 -23.55078125 78.203125 C-23.81270264 79.08323242 -24.07462402 79.96333984 -24.34448242 80.87011719 C-24.8514352 82.57824834 -25.35566225 84.28719169 -25.85668945 85.99707031 C-27.36643788 91.09395622 -29.07408039 96.04466089 -31 101 C-31.42345703 102.30130859 -31.42345703 102.30130859 -31.85546875 103.62890625 C-33.44279264 106.91732128 -35.80509646 109.33685968 -38.3125 111.9375 C-39.26829899 112.94531526 -40.22273138 113.95442836 -41.17578125 114.96484375 C-41.64540283 115.46209961 -42.11502441 115.95935547 -42.59887695 116.47167969 C-44.82807583 118.90325051 -46.89990668 121.45647481 -49 124 C-51.6875 126.875 -51.6875 126.875 -54 129 C-54.66 129 -55.32 129 -56 129 C-56.2371875 129.56203125 -56.474375 130.1240625 -56.71875 130.703125 C-58.28947697 133.51894042 -60.21471464 135.47955416 -62.5 137.75 C-63.2940625 138.54921875 -64.088125 139.3484375 -64.90625 140.171875 C-67 142 -67 142 -69 142 C-69.33 142.99 -69.66 143.98 -70 145 C-71.45348447 146.22224831 -72.91104477 147.4403436 -74.3984375 148.62109375 C-76.39069209 150.33637636 -77.94194516 152.34540427 -79.6015625 154.375 C-86.67259617 162.59162014 -86.67259617 162.59162014 -91.515625 163.44140625 C-93.72237821 163.43793651 -95.81789872 163.3182231 -98 163 C-98 162.34 -98 161.68 -98 161 C-97.37174316 160.91137695 -96.74348633 160.82275391 -96.09619141 160.73144531 C-93.89839518 160.21843269 -93.89839518 160.21843269 -93.07177734 158.41699219 C-92.76941162 157.36753418 -92.76941162 157.36753418 -92.4609375 156.296875 C-92.22213867 155.48025391 -91.98333984 154.66363281 -91.73730469 153.82226562 C-90.2980848 148.31319876 -88.93258535 142.79184472 -87.625 137.25 C-87.16130391 135.30722477 -86.69760778 133.36444955 -86.23390198 131.42167664 C-85.48583099 128.28193179 -84.7432386 125.14089165 -84 122 C-83.10493399 118.22898419 -82.20877147 114.45822945 -81.3125 110.6875 C-81.01218872 109.42208374 -81.01218872 109.42208374 -80.70581055 108.13110352 C-78.86803497 100.40421382 -76.94296704 92.70107178 -75 85 C-74.16685278 81.67479865 -73.3367903 78.34882685 -72.50634766 75.02294922 C-71.63929145 71.55215662 -70.76922474 68.08215773 -69.89453125 64.61328125 C-69.71341797 63.89333984 -69.53230469 63.17339844 -69.34570312 62.43164062 C-69.00032852 61.05899795 -68.65403314 59.68658649 -68.30664062 58.31445312 C-67.44627394 54.8906894 -66.65661659 51.46879268 -66 48 C-65.2265625 47.85304687 -64.453125 47.70609375 -63.65625 47.5546875 C-57.26155661 46.17761244 -52.6568335 44.65799795 -47.71875 40.3046875 C-46 39 -46 39 -43.90625 38.5703125 C-42.96265625 38.28800781 -42.96265625 38.28800781 -42 38 C-41.31261972 36.67722618 -40.64954374 35.34175823 -40 34 C-37.6796875 31.8515625 -37.6796875 31.8515625 -34.875 29.625 C-33.89015625 28.83867187 -32.9053125 28.05234375 -31.890625 27.2421875 C-28.91563864 24.93456295 -25.91623046 22.67149487 -22.8515625 20.484375 C-20.85321159 18.9386339 -20.85321159 18.9386339 -18.6875 16.6796875 C-15.71982422 13.72063868 -12.59525484 11.05119352 -9.375 8.375 C-4.52009076 4.37108802 -4.52009076 4.37108802 0 0 Z " fill="#415396" transform="translate(280,135)"/>
<path d="M0 0 C1.32 0.99 2.64 1.98 4 3 C3 5 2 7 1 9 C1.598125 8.484375 2.19625 7.96875 2.8125 7.4375 C3.534375 6.963125 4.25625 6.48875 5 6 C5.99 6.33 6.98 6.66 8 7 C9.1875 9.5625 9.1875 9.5625 10 12 C8.02 14.31 6.04 16.62 4 19 C6.97 17.02 9.94 15.04 13 13 C15 16 15 16 14.91015625 17.91796875 C13.64737752 20.80664284 11.82198952 22.26293115 9.4375 24.3125 C8.53 25.10011719 7.6225 25.88773438 6.6875 26.69921875 C5.800625 27.45847656 4.91375 28.21773437 4 29 C2.6453196 30.20775735 1.29110338 31.41603569 -0.0625 32.625 C-3.37990196 35.51456242 -6.80752237 38.22432661 -10.296875 40.90234375 C-14.49491474 44.16007112 -18.63025464 47.49577385 -22.77172852 50.82495117 C-23.98571997 51.79934113 -25.20151488 52.7714901 -26.41943359 53.7409668 C-27.71087849 54.76969422 -28.99516724 55.80739984 -30.27734375 56.84765625 C-32.58127616 58.38883553 -34.29094754 58.22575437 -37 58 C-35.48658639 54.14295732 -33.20239414 52.34598463 -29.9375 49.875 C-26.4287459 47.39068378 -26.4287459 47.39068378 -24 44 C-25.75326198 45.24542058 -27.50247622 46.49654053 -29.25 47.75 C-30.22453125 48.44609375 -31.1990625 49.1421875 -32.203125 49.859375 C-36.77176756 53.34782534 -36.77176756 53.34782534 -40 58 C-41.65 58 -43.3 58 -45 58 C-44.24469484 51.78491752 -40.52995907 48.96971679 -36 45 C-33.71767401 43.22200821 -31.40978299 41.60652199 -29 40 C-36.40204223 41.35342081 -41.76369992 47.28480365 -45.9375 53.1875 C-47.84093821 56.04490725 -49.52473835 58.89981246 -51 62 C-51.66 62 -52.32 62 -53 62 C-52.34982469 53.54772103 -47.2199474 46.30637097 -41.63671875 40.19140625 C-37.75368398 36.96417291 -33.43489811 35.00521838 -28.87719727 32.88964844 C-22.27628324 29.7948625 -17.08673609 26.13010414 -13 20 C-13.77601563 20.64066406 -14.55203125 21.28132813 -15.3515625 21.94140625 C-21.10065255 26.57919152 -26.59896382 30.49685504 -33.3125 33.625 C-45.94776687 39.71175646 -50.39685127 48.72075917 -56 61 C-56.66 61 -57.32 61 -58 61 C-58.66907569 51.96747813 -55.66587409 44.08234262 -50 37 C-44.76104648 31.79297707 -39.2964953 28.27732517 -32.6875 25.0625 C-25.2135232 21.27780536 -18.52735706 17.29059467 -12 12 C-10.99066406 11.19949219 -10.99066406 11.19949219 -9.9609375 10.3828125 C-6.14879487 7.25198897 -3.04644126 3.87728887 0 0 Z " fill="#F3F3F3" transform="translate(261,111)"/>
<path d="M0 0 C3.86828312 1.51968265 5.43842183 3.79802729 8 7 C9.82712445 8.73842909 11.71824519 10.37195495 13.64453125 12 C15.27445178 13.38394579 16.87459216 14.80345308 18.44921875 16.25 C26.96534969 23.83069287 36.47310319 29.0748143 46.41552734 34.5534668 C59.19627161 41.70686844 71.11526465 49.88257933 77 64 C77 64.99 77 65.98 77 67 C76.34 67 75.68 67 75 67 C73.80859375 65.56640625 73.80859375 65.56640625 72.4375 63.5625 C65.52460875 54.14036217 57.39782886 47.28532298 47 42 C46.01 42 45.02 42 44 42 C44.92619141 42.52787109 44.92619141 42.52787109 45.87109375 43.06640625 C55.66303175 48.77464408 65.6153259 55.42298886 72 65 C71.505 66.485 71.505 66.485 71 68 C69.99403703 67.0479279 68.99538437 66.08812654 68 65.125 C67.443125 64.59132813 66.88625 64.05765625 66.3125 63.5078125 C65 62 65 62 65 60 C64.43796875 59.73445313 63.8759375 59.46890625 63.296875 59.1953125 C60.82069778 57.90668966 58.56155118 56.43869639 56.25 54.875 C55.45078125 54.33617187 54.6515625 53.79734375 53.828125 53.2421875 C53.22484375 52.83226562 52.6215625 52.42234375 52 52 C55.80411834 55.91939465 59.81576108 59.49102731 64 63 C60.5272737 63 59.44693591 62.27416542 56.53515625 60.47265625 C55.65867432 59.93237793 54.78219238 59.39209961 53.87915039 58.83544922 C52.94965576 58.25037598 52.02016113 57.66530273 51.0625 57.0625 C50.11044678 56.46711426 49.15839355 55.87172852 48.17749023 55.25830078 C41.15934948 50.82673513 34.50289417 46.16274033 28 41 C26.84095282 40.10533218 25.68073339 39.21218158 24.51953125 38.3203125 C17.40396197 32.83121366 10.55335904 27.15884244 4 21 C3.12601563 20.21367188 2.25203125 19.42734375 1.3515625 18.6171875 C0.51367188 17.83601563 -0.32421875 17.05484375 -1.1875 16.25 C-1.94417969 15.55390625 -2.70085937 14.8578125 -3.48046875 14.140625 C-5 12 -5 12 -4.73828125 9.234375 C-4.49464844 8.49703125 -4.25101562 7.7596875 -4 7 C0.04420651 8.77945087 3.46078487 11.39529673 7 14 C7.33 13.67 7.66 13.34 8 13 C7.4225 12.56429687 6.845 12.12859375 6.25 11.6796875 C0.10977702 6.75471698 0.10977702 6.75471698 -0.5 2.5625 C-0.335 1.716875 -0.17 0.87125 0 0 Z " fill="#F5F5F5" transform="translate(118,101)"/>
<path d="M0 0 C7.46618968 6.64382675 9.7122094 18.67953665 12 28 C12.18481934 28.72832031 12.36963867 29.45664063 12.56005859 30.20703125 C15.84398944 43.44285751 19.4246736 60.72597919 15 74 C12 73 12 73 10.74609375 70.953125 C10.31425781 70.06109375 9.88242188 69.1690625 9.4375 68.25 C7.69022929 64.81738716 5.9283713 61.78806631 3.38671875 58.90625 C2.70428101 58.11686035 2.70428101 58.11686035 2.00805664 57.31152344 C0.6908237 55.82431745 -0.66546731 54.37197887 -2.0234375 52.921875 C-7.67948178 44.39443213 -3.59034109 27.85947048 -2.5625 18.3125 C-2.42580717 16.96946452 -2.28973771 15.62636544 -2.15429688 14.28320312 C-1.06009107 3.74146428 -1.06009107 3.74146428 0 0 Z " fill="#B8CAE2" transform="translate(185,78)"/>
<path d="M0 0 C8.86876827 4.00981544 16.46481334 8.86371212 24 15 C24.56509277 15.45681152 25.13018555 15.91362305 25.71240234 16.38427734 C39.10111184 27.28825533 50.46137714 39.57214106 60 54 C60 54.66 60 55.32 60 56 C59.34 56 58.68 56 58 56 C57.195625 54.989375 56.39125 53.97875 55.5625 52.9375 C49.65151741 45.82136562 40.90024099 41.90301438 32.8828125 37.5859375 C24.18325459 32.80000185 16.07379356 27.62780167 8.52734375 21.15625 C6.898976 19.76697798 5.22562177 18.42800231 3.50390625 17.15625 C-1.84328802 13.07866684 -1.84328802 13.07866684 -2.30078125 9.9296875 C-2.0625 7.8125 -2.0625 7.8125 -1 4 C-0.66283821 2.66762962 -0.32845734 1.33454287 0 0 Z " fill="#BACCE4" transform="translate(130,92)"/>
<path d="M0 0 C3.85217706 0.5677812 5.66791608 2.28000716 8.4375 4.9375 C14.32373628 10.39092479 20.58125788 15.20133013 27 20 C28.39412109 21.05380859 28.39412109 21.05380859 29.81640625 22.12890625 C36.62260879 27.19145283 43.72480169 31.64563254 51 36 C52.50820312 36.90878906 52.50820312 36.90878906 54.046875 37.8359375 C56.3617492 39.22878554 58.67924687 40.61697782 61 42 C56.39893171 37.97811312 56.39893171 37.97811312 51.5625 34.25 C50.7890625 33.63125 50.7890625 33.63125 50 33 C50 32.34 50 31.68 50 31 C58.53543166 33.66732239 64.15948905 39.77590411 69 47 C65.17160523 48.47915252 62.90569119 49.33066314 59 48 C55.86191905 46.42063941 52.88115664 44.56616625 49.875 42.75 C48.98772217 42.2142334 48.10044434 41.6784668 47.1862793 41.12646484 C34.72073984 33.49169613 23.08587063 24.84041198 11.75 15.625 C11.0588208 15.06635254 10.3676416 14.50770508 9.65551758 13.93212891 C5.26071274 10.29187825 1.6066689 6.42432986 -2 2 C-1.34 2 -0.68 2 0 2 C0 1.34 0 0.68 0 0 Z " fill="#0C0F15" transform="translate(120,122)"/>
<path d="M0 0 C0.886875 0.78375 1.77375 1.5675 2.6875 2.375 C14.61767671 12.51922211 27.10361864 21.20702523 41.2109375 28.0703125 C44.33548185 29.61171865 47.07256522 31.32779945 49.8125 33.5 C50.54082031 34.0671875 51.26914063 34.634375 52.01953125 35.21875 C54.03172057 37.02852974 55.59298117 38.68582429 57 41 C56.1875 43.75 56.1875 43.75 55 46 C54.55269531 45.61328125 54.10539062 45.2265625 53.64453125 44.828125 C53.03996094 44.30734375 52.43539062 43.7865625 51.8125 43.25 C51.22082031 42.73953125 50.62914062 42.2290625 50.01953125 41.703125 C46.0180832 38.32859628 42.16975752 35.39771618 37.53515625 32.93359375 C36.49407715 32.37099854 35.45299805 31.80840332 34.38037109 31.22875977 C32.7380249 30.34208618 32.7380249 30.34208618 31.0625 29.4375 C18.22018086 22.37560934 7.03890535 14.75597002 -3 4 C-2.01 2.68 -1.02 1.36 0 0 Z " fill="#0C0F11" transform="translate(131,106)"/>
<path d="M0 0 C0.66 0.33 1.32 0.66 2 1 C1.67 1.99 1.34 2.98 1 4 C1.66 4.33 2.32 4.66 3 5 C-3.47038618 10.34183045 -9.67924425 15.06831543 -17.3125 18.625 C-29.94776687 24.71175646 -34.39685127 33.72075917 -40 46 C-40.66 46 -41.32 46 -42 46 C-42.66907569 36.96747813 -39.66587409 29.08234262 -34 22 C-28.70238268 16.72771877 -23.11812636 13.14866687 -16.4375 9.875 C-10.57780291 6.96144132 -5.23215486 3.94694098 0 0 Z " fill="#E9EAEB" transform="translate(245,126)"/>
<path d="M0 0 C-1.51341361 3.85704268 -3.79760586 5.65401537 -7.0625 8.125 C-10.5712541 10.60931622 -10.5712541 10.60931622 -13 14 C-7.7454868 12.61681498 -4.40742361 10.26292057 -0.3125 6.875 C5.60330579 2 5.60330579 2 9 2 C8.690625 2.763125 8.38125 3.52625 8.0625 4.3125 C7.32106407 6.18789677 6.63771783 8.08684652 6 10 C3.32003912 12.43284144 0.31630653 14.45726564 -2.625 16.5625 C-3.42035156 17.15224609 -4.21570313 17.74199219 -5.03515625 18.34960938 C-12.05293785 23.41416605 -17.68615301 25.29169232 -26.4375 25.125 C-28.29181641 25.09792969 -28.29181641 25.09792969 -30.18359375 25.0703125 C-31.11300781 25.04710937 -32.04242188 25.02390625 -33 25 C-33 24.67 -33 24.34 -33 24 C-29.7 23.67 -26.4 23.34 -23 23 C-22.83279508 20.12857045 -22.83279508 20.12857045 -23.6875 18.0625 C-24 16 -24 16 -22.5625 13.75 C-22.046875 13.1725 -21.53125 12.595 -21 12 C-21 12.66 -21 13.32 -21 14 C-19.35 14 -17.7 14 -16 14 C-15.690625 12.91138672 -15.690625 12.91138672 -15.375 11.80078125 C-13.62880394 8.24389893 -11.15262543 6.42184892 -8 4.1875 C-7.4534375 3.78080078 -6.906875 3.37410156 -6.34375 2.95507812 C-2.29107143 0 -2.29107143 0 0 0 Z " fill="#0E1015" transform="translate(237,155)"/>
<path d="M0 0 C3.19061641 0.72768444 6.06930047 1.53465023 9 3 C9 2.34 9 1.68 9 1 C20.75562483 5.47337936 31.80818162 13.58426303 39 24 C38.505 25.485 38.505 25.485 38 27 C36.99403703 26.0479279 35.99538437 25.08812654 35 24.125 C34.443125 23.59132812 33.88625 23.05765625 33.3125 22.5078125 C32 21 32 21 32 19 C31.43796875 18.73445313 30.8759375 18.46890625 30.296875 18.1953125 C27.82069778 16.90668966 25.56155118 15.43869639 23.25 13.875 C22.45078125 13.33617187 21.6515625 12.79734375 20.828125 12.2421875 C20.22484375 11.83226562 19.6215625 11.42234375 19 11 C22.80411834 14.91939465 26.81576108 18.49102731 31 22 C27.49633359 22 26.39789538 21.23479986 23.46484375 19.40234375 C22.57216797 18.84740234 21.67949219 18.29246094 20.75976562 17.72070312 C19.82841797 17.13224609 18.89707031 16.54378906 17.9375 15.9375 C17.03322266 15.37611328 16.12894531 14.81472656 15.19726562 14.23632812 C8.98855364 10.35310941 2.95931699 6.25504109 -3 2 C-2.01 1.34 -1.02 0.68 0 0 Z " fill="#EFEFEE" transform="translate(151,142)"/>
<path d="M0 0 C0.33 0 0.66 0 1 0 C0.44988125 6.51977557 -0.42282464 12.86097667 -1.75390625 19.265625 C-1.92821671 20.11997131 -2.10252716 20.97431763 -2.28211975 21.85455322 C-4.34543348 31.85447107 -6.64076012 41.80168546 -8.9375 51.75 C-13.48441083 71.49006525 -13.48441083 71.49006525 -17.46655273 91.35058594 C-18.92875276 98.85000283 -18.92875276 98.85000283 -22 102 C-22.36375312 94.96180014 -20.99566989 88.8130485 -19.3125 82 C-18.75815773 79.68543569 -18.20612747 77.37031659 -17.65625 75.0546875 C-17.23859375 73.29850098 -17.23859375 73.29850098 -16.8125 71.50683594 C-15.33269968 65.11986125 -14.03158727 58.69631409 -12.73754883 52.26953125 C-11.57569147 46.55769706 -10.25083762 40.91096688 -8.81420898 35.26220703 C-7.90737449 31.62888694 -7.05264848 27.98474631 -6.2109375 24.3359375 C-5.98506203 23.35864182 -5.98506203 23.35864182 -5.75462341 22.36160278 C-5.13502146 19.67785204 -4.51686119 16.99377803 -3.90136719 14.30908203 C-3.44428568 12.3175126 -2.98408957 10.3266836 -2.5234375 8.3359375 C-2.25450684 7.16595215 -1.98557617 5.9959668 -1.70849609 4.79052734 C-1 2 -1 2 0 0 Z " fill="#0B142C" transform="translate(189,190)"/>
<path d="M0 0 C0.33 0 0.66 0 1 0 C1.36703912 6.40975629 -0.00313448 12.05477476 -1.5625 18.25 C-1.82772461 19.33031494 -2.09294922 20.41062988 -2.36621094 21.52368164 C-4.70031864 30.96787179 -7.14428663 40.38509398 -9.63891602 49.78808594 C-10.85518725 54.40310298 -12.0360215 58.99140642 -12.9140625 63.68359375 C-14.39835396 71.42701133 -16.58321951 79.01429491 -18.625 86.625 C-19.04976234 88.21737241 -19.47424376 89.80981978 -19.8984375 91.40234375 C-20.92905552 95.26910088 -21.96346778 99.13482424 -23 103 C-23.66 103 -24.32 103 -25 103 C-24.37137654 95.05531515 -22.54823128 87.56469213 -20.578125 79.859375 C-20.23225071 78.48779107 -19.88694598 77.11606341 -19.54217529 75.74420166 C-18.63518296 72.14085734 -17.72136521 68.53928112 -16.80578613 64.93811035 C-15.35698244 59.23422143 -13.9191866 53.5275406 -12.47990417 47.82124329 C-11.95547371 45.74367956 -11.42975101 43.66644573 -10.90393066 41.5892334 C-8.7190926 32.944065 -6.59515216 24.28647148 -4.62139893 15.590271 C-3.39213702 10.27471774 -1.80707558 5.14734095 0 0 Z " fill="#050C23" transform="translate(219,186)"/>
<path d="M0 0 C0.495 1.485 0.495 1.485 1 3 C-12.94805195 17.64935065 -12.94805195 17.64935065 -20 20 C-20.495 21.485 -20.495 21.485 -21 23 C-22.93359375 24.76171875 -22.93359375 24.76171875 -25.4375 26.6875 C-26.33210938 27.38488281 -27.22671875 28.08226562 -28.1484375 28.80078125 C-29.08945313 29.52652344 -30.03046875 30.25226563 -31 31 C-32.85806501 32.45336318 -34.71243051 33.91147241 -36.5625 35.375 C-37.38878906 36.02210938 -38.21507812 36.66921875 -39.06640625 37.3359375 C-41.09232977 38.86281005 -41.09232977 38.86281005 -42 41 C-43.64821244 42.03013277 -45.32111559 43.02065076 -47 44 C-47.98033203 44.73863281 -47.98033203 44.73863281 -48.98046875 45.4921875 C-54.605421 49.6536566 -59.01309985 50.97082714 -66 51 C-66 52.65 -66 54.3 -66 56 C-66.33 56 -66.66 56 -67 56 C-67.33 54.02 -67.66 52.04 -68 50 C-74.6 49.34 -81.2 48.68 -88 48 C-88 47.01 -88 46.02 -88 45 C-87.67 45.33 -87.34 45.66 -87 46 C-75.72448902 47.77342988 -61.34992493 49.48781596 -51.4921875 42.78515625 C-50.27771651 41.88933606 -49.0722733 40.98117854 -47.875 40.0625 C-46.90276489 39.33377686 -46.90276489 39.33377686 -45.91088867 38.59033203 C-41.02727197 34.8896292 -36.33283793 30.98829663 -31.70019531 26.97998047 C-28.28730506 24.03837421 -24.7808666 21.32811926 -21.125 18.6875 C-13.51365888 13.09632717 -6.80202255 6.53254351 0 0 Z " fill="#7F8ED1" transform="translate(280,132)"/>
<path d="M0 0 C0.66 0.66 1.32 1.32 2 2 C1.34 2 0.68 2 0 2 C0 2.66 0 3.32 0 4 C0.66 4 1.32 4 2 4 C-2.87858815 15.67189099 -18.98308175 23.94262578 -29 31 C-29 27.50628786 -28.68005004 26.08009175 -27 23 C-24.48414957 20.48414957 -21.74378205 18.26130528 -19 16 C-17.72575188 14.87886928 -16.45488306 13.75388553 -15.1875 12.625 C-10.23428042 8.2847537 -5.11526704 4.14675141 0 0 Z " fill="#0B0D13" transform="translate(273,132)"/>
<path d="M0 0 C-3.53088876 7.88450888 -10.51056461 11.38997923 -18 14.875 C-27.99839856 19.60643622 -33.40603156 25.73356603 -37.9921875 35.8359375 C-39 38 -39 38 -41 41 C-41.66 40.34 -42.32 39.68 -43 39 C-36.9410623 25.07648092 -29.78467822 16.30416188 -15.77514648 9.84423828 C-10.9442562 7.59610295 -7.17226922 5.0564498 -3.3828125 1.25 C-2 0 -2 0 0 0 Z " fill="#212224" transform="translate(248,131)"/>
<path d="M0 0 C0.33 0 0.66 0 1 0 C1.33 2.31 1.66 4.62 2 7 C3.32 6.67 4.64 6.34 6 6 C4.67979056 9.56456549 2.52944025 11.39878663 -0.4375 13.6953125 C-2.25034787 15.12690029 -2.25034787 15.12690029 -4.3125 17.8125 C-8.10914414 20.90279174 -11.28478221 20.46227625 -16 20 C-16 19.34 -16 18.68 -16 18 C-15.38125 17.938125 -14.7625 17.87625 -14.125 17.8125 C-11.72238859 17.171081 -11.72238859 17.171081 -10.75 14.4375 C-10.5025 13.633125 -10.255 12.82875 -10 12 C-9.34 12 -8.68 12 -8 12 C-7.67 11.34 -7.34 10.68 -7 10 C-6.01 9.34 -5.02 8.68 -4 8 C-4 8.99 -4 9.98 -4 11 C-3.34 11 -2.68 11 -2 11 C-1.7834375 9.1128125 -1.7834375 9.1128125 -1.5625 7.1875 C-1.26251314 4.57332877 -0.84186703 2.52560108 0 0 Z M-1 8 C-0.67 8.66 -0.34 9.32 0 10 C0.33 9.34 0.66 8.68 1 8 C0.34 8 -0.32 8 -1 8 Z " fill="#3E548E" transform="translate(198,278)"/>
<path d="M0 0 C1.32 0 2.64 0 4 0 C4.3540919 6.51791392 4.03901852 11.17521449 1 17 C0.34 17 -0.32 17 -1 17 C-1.33 18.65 -1.66 20.3 -2 22 C-2.66 22 -3.32 22 -4 22 C-3.67 22.99 -3.34 23.98 -3 25 C-3.24132128 27.0720344 -3.56239629 29.13546206 -3.9375 31.1875 C-4.13214844 32.27417969 -4.32679688 33.36085937 -4.52734375 34.48046875 C-4.68332031 35.31191406 -4.83929688 36.14335937 -5 37 C-5.99 37 -6.98 37 -8 37 C-7.38911855 31.00100691 -6.17468527 25.42828178 -4.5625 19.625 C-2.79715529 13.11375182 -1.19811397 6.64408659 0 0 Z " fill="#42579E" transform="translate(214,183)"/>
<path d="M0 0 C0.66 0 1.32 0 2 0 C3.53329303 9.54048996 2.77939118 19.86109941 -2.4140625 28.296875 C-2.93742188 28.85890625 -3.46078125 29.4209375 -4 30 C-4.99 30 -5.98 30 -7 30 C-6.74605469 29.00742187 -6.49210938 28.01484375 -6.23046875 26.9921875 C-3.9545665 18.0305451 -1.86800239 9.05698128 0 0 Z " fill="#465B9F" transform="translate(195,260)"/>
<path d="M0 0 C0.33 0 0.66 0 1 0 C0.4455142 6.62152103 -0.46074627 13.05828664 -1.8125 19.5625 C-1.98773193 20.41368408 -2.16296387 21.26486816 -2.34350586 22.1418457 C-2.88841577 24.76281131 -3.44385426 27.38139858 -4 30 C-4.17466797 30.84336914 -4.34933594 31.68673828 -4.52929688 32.55566406 C-5.02548735 34.93644214 -5.54048486 37.3122673 -6.0625 39.6875 C-6.28740112 40.77430054 -6.28740112 40.77430054 -6.5168457 41.88305664 C-6.97265625 43.88671875 -6.97265625 43.88671875 -8 47 C-9.485 47.495 -9.485 47.495 -11 48 C-10.27700244 43.47755867 -9.41368638 38.99383029 -8.4765625 34.51171875 C-8.32972015 33.80908401 -8.18287781 33.10644928 -8.03158569 32.38252258 C-7.72137237 30.90239558 -7.4103747 29.42243277 -7.09863281 27.94262695 C-6.7841089 26.44507159 -6.47191518 24.94702485 -6.16210938 23.44848633 C-4.51383119 15.47625574 -2.8211265 7.65857961 0 0 Z " fill="#0D1834" transform="translate(189,190)"/>
<path d="M0 0 C-1.51341361 3.85704268 -3.79760586 5.65401537 -7.0625 8.125 C-10.5712541 10.60931622 -10.5712541 10.60931622 -13 14 C-12.01 14.33 -11.02 14.66 -10 15 C-15.91684902 19.90153173 -15.91684902 19.90153173 -20.4375 20.3125 C-21.283125 20.209375 -22.12875 20.10625 -23 20 C-23.6875 18.25 -23.6875 18.25 -24 16 C-22.5625 13.75 -22.5625 13.75 -21 12 C-21 12.66 -21 13.32 -21 14 C-19.35 14 -17.7 14 -16 14 C-15.79375 13.27425781 -15.5875 12.54851562 -15.375 11.80078125 C-13.62880394 8.24389893 -11.15262543 6.42184892 -8 4.1875 C-7.4534375 3.78080078 -6.906875 3.37410156 -6.34375 2.95507812 C-2.29107143 0 -2.29107143 0 0 0 Z " fill="#BACBDC" transform="translate(237,155)"/>
<path d="M0 0 C8.63545731 3.58673622 15.34028252 14.2088325 20 22 C20 22.66 20 23.32 20 24 C19.34 24 18.68 24 18 24 C16.73828125 22.64453125 16.73828125 22.64453125 15.3125 20.8125 C12.25436548 17.09743288 9.00635633 14.64419518 5 12 C5.33 11.01 5.66 10.02 6 9 C5.071875 8.566875 5.071875 8.566875 4.125 8.125 C2 7 2 7 0 5 C-0.99 5.495 -0.99 5.495 -2 6 C-2 4.68 -2 3.36 -2 2 C-1.34 2 -0.68 2 0 2 C0 1.34 0 0.68 0 0 Z " fill="#C2D0ED" transform="translate(170,124)"/>
<path d="M0 0 C4.16545506 1.38848502 5.71044672 4.35071252 8.125 7.8125 C8.58003906 8.44220703 9.03507813 9.07191406 9.50390625 9.72070312 C11.69819188 12.8233058 13.23229366 15.22999512 14 19 C10.70277141 19 9.69996074 18.80997368 7 17 C5.30403321 14.81545999 3.7609981 12.67841078 2.25 10.375 C1.83878906 9.76398438 1.42757812 9.15296875 1.00390625 8.5234375 C-0.00551256 7.02104672 -1.0038647 5.51123091 -2 4 C-1.34 2.68 -0.68 1.36 0 0 Z M11 16 C12 18 12 18 12 18 Z " fill="#0A0D10" transform="translate(181,128)"/>
<path d="M0 0 C5.15281424 4.5350792 7.98566098 11.97692247 8.8125 18.6875 C8.874375 19.780625 8.93625 20.87375 9 22 C8.01 22 7.02 22 6 22 C5.49596232 20.70990357 4.99690074 19.41786211 4.5 18.125 C4.2215625 17.40570313 3.943125 16.68640625 3.65625 15.9453125 C3 14 3 14 3 12 C2.34 12 1.68 12 1 12 C0.67 13.98 0.34 15.96 0 18 C-0.33 18 -0.66 18 -1 18 C-1.02707139 15.75006641 -1.04642829 13.50003905 -1.0625 11.25 C-1.07410156 9.99703125 -1.08570313 8.7440625 -1.09765625 7.453125 C-1.02021027 4.71463499 -0.82780815 2.58119707 0 0 Z " fill="#E2E3E4" transform="translate(185,78)"/>
<path d="M0 0 C0.495 1.485 0.495 1.485 1 3 C-12.94805195 17.64935065 -12.94805195 17.64935065 -20 20 C-20.33 20.99 -20.66 21.98 -21 23 C-23.109375 25.0078125 -23.109375 25.0078125 -25.75 27.125 C-26.61109375 27.82882813 -27.4721875 28.53265625 -28.359375 29.2578125 C-31.02016693 31.0133054 -32.86557616 31.6279281 -36 32 C-30.66927848 26.50269344 -24.99964634 21.47417681 -18.875 16.875 C-12.16272167 11.74346911 -6.13104832 5.7996403 0 0 Z " fill="#7A8AC3" transform="translate(280,132)"/>
<path d="M0 0 C3.42720102 1.50796845 6.30913432 3.58440102 9.31640625 5.78125 C10.85087948 6.89205197 12.42382152 7.94921434 14 9 C13.01 10.485 13.01 10.485 12 12 C13.32 12.66 14.64 13.32 16 14 C16 14.66 16 15.32 16 16 C13.525 15.01 13.525 15.01 11 14 C10.67 14.66 10.34 15.32 10 16 C8.12649646 14.28836717 6.27808343 12.55892447 4.4375 10.8125 C3.90447266 10.32974609 3.37144531 9.84699219 2.82226562 9.34960938 C1.30859375 7.89453125 1.30859375 7.89453125 -1 5 C-0.83984375 2.13671875 -0.83984375 2.13671875 0 0 Z " fill="#D4D4D4" transform="translate(114,108)"/>
<path d="M0 0 C11.47798807 0.60410464 21.02789659 10.67274635 28.40625 18.578125 C30.29854627 20.69696378 32.1648331 22.8316324 34 25 C33.01 25.495 33.01 25.495 32 26 C31.67 26.66 31.34 27.32 31 28 C30.505 27.01 30.01 26.02 29.5 25 C24.42208558 16.22423153 16.53324243 11.07548862 8 6 C5.31204701 4.36183023 2.64985417 2.69990645 0 1 C0 0.67 0 0.34 0 0 Z " fill="#2D2B2A" transform="translate(159,141)"/>
<path d="M0 0 C3.78639481 2.8018 6.46373482 5.66460145 9.1875 9.5 C9.86167969 10.4384375 10.53585938 11.376875 11.23046875 12.34375 C15 18.00220751 15 18.00220751 15 22 C14.34 22 13.68 22 13 22 C11.80859375 20.56640625 11.80859375 20.56640625 10.4375 18.5625 C6.80098544 13.51830238 2.47533531 9.2963219 -2 5 C-1.34 3.35 -0.68 1.7 0 0 Z " fill="#E3E7E7" transform="translate(180,146)"/>
<path d="M0 0 C9.16242445 4.14258552 20.25238833 9.37858249 26 18 C22.40142046 18 20.90548882 17.04169485 18 15 C18 14.34 18 13.68 18 13 C16.7934375 12.690625 16.7934375 12.690625 15.5625 12.375 C11.57675787 10.83664339 8.44462075 8.76845219 4.953125 6.33984375 C3.04576051 4.96571923 3.04576051 4.96571923 1 4 C0.67 4.66 0.34 5.32 0 6 C0 4.02 0 2.04 0 0 Z " fill="#EBF0F4" transform="translate(130,92)"/>
<path d="M0 0 C0.66 0 1.32 0 2 0 C1.34664916 6.88085948 -0.26499275 13.33546035 -2.0625 20 C-2.34416016 21.06089844 -2.62582031 22.12179688 -2.91601562 23.21484375 C-3.60603133 25.81117401 -4.30079203 28.40613311 -5 31 C-5.33 31 -5.66 31 -6 31 C-6.33 27.37 -6.66 23.74 -7 20 C-6.34 19.67 -5.68 19.34 -5 19 C-4.58244638 16.68025766 -4.2644354 14.34214207 -4 12 C-3.7355646 9.65785793 -3.41755362 7.31974234 -3 5 C-2.34 4.67 -1.68 4.34 -1 4 C-0.34786708 1.97536745 -0.34786708 1.97536745 0 0 Z " fill="#3E5187" transform="translate(213,200)"/>
<path d="M0 0 C0 0.99 0 1.98 0 3 C-1.9765625 4.796875 -1.9765625 4.796875 -4.625 6.75 C-11.47204047 12.04749807 -16.00115264 16.83647109 -19 25 C-19.99 24.34 -20.98 23.68 -22 23 C-17.28178015 12.18741284 -10.42069926 5.44524244 0 0 Z " fill="#2E2E2E" transform="translate(232,149)"/>
<path d="M0 0 C0.33 0.66 0.66 1.32 1 2 C-0.2065625 2.37125 -0.2065625 2.37125 -1.4375 2.75 C-4.13094622 3.71530389 -4.13094622 3.71530389 -4.8125 5.9375 C-5.04526787 8.15277907 -5.04526787 8.15277907 -5 11 C-9.51815281 11.88277755 -13.77512694 12.10589503 -18.375 12.0625 C-20.24285156 12.04896484 -20.24285156 12.04896484 -22.1484375 12.03515625 C-23.55996094 12.01775391 -23.55996094 12.01775391 -25 12 C-25 11.67 -25 11.34 -25 11 C-23.95199219 10.94392578 -23.95199219 10.94392578 -22.8828125 10.88671875 C-21.97273437 10.82097656 -21.06265625 10.75523437 -20.125 10.6875 C-19.22007812 10.62949219 -18.31515625 10.57148438 -17.3828125 10.51171875 C-14.63778399 10.2117961 -14.63778399 10.2117961 -13 7 C-11.30645751 6.25093313 -9.60954307 5.50714171 -7.88671875 4.828125 C-4.9972733 3.55987979 -2.57193362 1.81917256 0 0 Z " fill="#0F131E" transform="translate(229,168)"/>
<path d="M0 0 C4.30764815 1.56641751 8.06171464 3.68336156 12 6 C11.01 6.99 10.02 7.98 9 9 C9.33 9.66 9.66 10.32 10 11 C5.02790438 9.23570801 0.56561939 6.6060834 -4 4 C-2.68 2.68 -1.36 1.36 0 0 Z " fill="#12161A" transform="translate(153,124)"/>
<path d="M0 0 C2.94912594 4.94692094 2.93496613 10.42136874 2 16 C0.14257578 18.3109813 -1.19801669 18.83250695 -4 20 C-3.58249366 14.95696293 -3.02302305 10.67824079 -1 6 C-0.62406934 4.0075675 -0.28020455 2.0081326 0 0 Z " fill="#465DA3" transform="translate(205,220)"/>
<path d="M0 0 C3.18141867 -0.46557346 5.25343123 -0.50963377 7.95703125 1.3359375 C9.6935608 2.84258024 11.369718 4.37936464 13 6 C12.67 6.99 12.34 7.98 12 9 C7.2292071 8.56629155 3.36635741 6.35665609 0 3 C0 2.01 0 1.02 0 0 Z " fill="#080810" transform="translate(144,144)"/>
<path d="M0 0 C3.83264178 1.5056807 5.537762 3.76831262 8 7 C9.31494512 8.35147138 10.64264858 9.69112542 12 11 C11.01 11 10.02 11 9 11 C8.67 11.66 8.34 12.32 8 13 C0.15754923 7.08315098 0.15754923 7.08315098 -0.5 2.5625 C-0.335 1.716875 -0.17 0.87125 0 0 Z " fill="#E3E2E1" transform="translate(118,101)"/>
<path d="M0 0 C0.99 0.495 0.99 0.495 2 1 C4.02946119 1.22287081 6.06489743 1.39239935 8.1015625 1.53515625 C9.31328125 1.62216797 10.525 1.70917969 11.7734375 1.79882812 C13.67996094 1.9293457 13.67996094 1.9293457 15.625 2.0625 C17.543125 2.19881836 17.543125 2.19881836 19.5 2.33789062 C22.66641994 2.56237562 25.83306591 2.78290923 29 3 C29 3.99 29 4.98 29 6 C27.02 6 25.04 6 23 6 C23 7.65 23 9.3 23 11 C22.67 11 22.34 11 22 11 C21.67 9.02 21.34 7.04 21 5 C14.4 4.34 7.8 3.68 1 3 C0.67 2.01 0.34 1.02 0 0 Z " fill="#8299DA" transform="translate(191,177)"/>
<path d="M0 0 C0.33 0 0.66 0 1 0 C1.05402274 2.10388569 1.09280256 4.20816714 1.125 6.3125 C1.14820312 7.48425781 1.17140625 8.65601563 1.1953125 9.86328125 C1 13 1 13 -1 16 C-0.67370401 20.11132941 -0.15681413 24.03378012 1 28 C-1.55242242 26.35915701 -2.65086545 25.64494362 -4 23 C-3.93344642 18.54696047 -2.96616289 14.33521795 -2 10 C-1.62293122 8.06290156 -1.24768215 6.12544718 -0.875 4.1875 C-0.58638204 2.7910331 -0.29598825 1.39492333 0 0 Z " fill="#7081B9" transform="translate(86,216)"/>
<path d="M0 0 C-1.50717926 3.80626627 -3.71589037 5.60726446 -6.9375 8.0625 C-9.79373746 10.25410488 -12.52608382 12.3791185 -15 15 C-15.66 14.67 -16.32 14.34 -17 14 C-14.72402192 9.53527645 -11.95721492 7.13268602 -7.9375 4.1875 C-7.39544922 3.78080078 -6.85339844 3.37410156 -6.29492188 2.95507812 C-2.27700893 0 -2.27700893 0 0 0 Z " fill="#212324" transform="translate(237,155)"/>
<path d="M0 0 C3.18477269 1.21231059 5.26496698 3.02028556 7.625 5.4375 C8.21539062 6.03433594 8.80578125 6.63117188 9.4140625 7.24609375 C11 9 11 9 13 12 C12.67 12.99 12.34 13.98 12 15 C10.99403703 14.0479279 9.99538437 13.08812654 9 12.125 C8.443125 11.59132812 7.88625 11.05765625 7.3125 10.5078125 C6 9 6 9 6 7 C5.4225 6.7525 4.845 6.505 4.25 6.25 C1.6997003 4.83316683 -0.01785701 3.12372463 -2 1 C-1.34 0.67 -0.68 0.34 0 0 Z " fill="#D3D4D6" transform="translate(177,154)"/>
<path d="M0 0 C3.15972507 0.29177641 3.99855543 0.99835772 6.140625 3.43359375 C6.83671875 4.42488281 7.5328125 5.41617188 8.25 6.4375 C8.95640625 7.42621094 9.6628125 8.41492188 10.390625 9.43359375 C12 12 12 12 12 14 C11.34 14 10.68 14 10 14 C8.703125 12.609375 8.703125 12.609375 7.25 10.75 C4.46470876 7.36786064 1.75197559 5.2333188 -2 3 C-1.34 2.67 -0.68 2.34 0 2 C0 1.34 0 0.68 0 0 Z " fill="#B4BBC7" transform="translate(178,134)"/>
<path d="M0 0 C6.05536989 1.89230309 11.38937097 5.68472076 15 10.875 C15.33 11.57625 15.66 12.2775 16 13 C15.01 13.33 14.02 13.66 13 14 C11 12 11 12 9.3125 9.6875 C7.31741575 7.36888858 5.72914237 6.00532853 3.25 4.3125 C2.1775 3.549375 1.105 2.78625 0 2 C0 1.34 0 0.68 0 0 Z " fill="#1D1F21" transform="translate(170,153)"/>
<path d="M0 0 C4.22387885 0.50097168 6.22740797 2.85868604 9.125 5.8125 C10.42824219 7.12154297 10.42824219 7.12154297 11.7578125 8.45703125 C13.67025253 10.62601811 14.90280262 12.35563103 16 15 C15.34 15 14.68 15 14 15 C13.67 15.66 13.34 16.32 13 17 C12.525625 16.030625 12.05125 15.06125 11.5625 14.0625 C9.05159211 9.59764924 5.5134734 6.32733759 1.828125 2.8203125 C1.22484375 2.21960938 0.6215625 1.61890625 0 1 C0 0.67 0 0.34 0 0 Z " fill="#16191D" transform="translate(177,152)"/>
<path d="M0 0 C1.32 0.33 2.64 0.66 4 1 C2.54331217 3.96783129 0.98767914 6.86415313 -0.625 9.75 C-1.29402344 10.94882813 -1.29402344 10.94882813 -1.9765625 12.171875 C-2.31429687 12.77515625 -2.65203125 13.3784375 -3 14 C-3.66 14 -4.32 14 -5 14 C-4.46515599 8.65155992 -2.53309233 4.64203897 0 0 Z " fill="#E7E7E7" transform="translate(213,159)"/>
<path d="M0 0 C1.875 0.125 1.875 0.125 4 1 C5.69726294 4.73397847 6.23990744 7.92157346 6 12 C5.01 12 4.02 12 3 12 C2.49166409 10.75336669 1.99368855 9.50250613 1.5 8.25 C1.2215625 7.55390625 0.943125 6.8578125 0.65625 6.140625 C0 4 0 4 0 0 Z " fill="#E5EAF0" transform="translate(188,88)"/>
<path d="M0 0 C-1.10690752 6.40593286 -2.33945169 12.71363856 -4 19 C-4.33 19 -4.66 19 -5 19 C-5.0809313 16.39521117 -5.14045434 13.79293347 -5.1875 11.1875 C-5.22520508 10.08051758 -5.22520508 10.08051758 -5.26367188 8.95117188 C-5.33780469 3.49005469 -5.33780469 3.49005469 -3.61328125 0.98828125 C-2 0 -2 0 0 0 Z " fill="#41518C" transform="translate(206,237)"/>
<path d="M0 0 C0.33 0 0.66 0 1 0 C0.37727768 7.4071181 -0.70487966 14.68194135 -2 22 C-4.64084812 17.46263547 -4.00038367 14.00191837 -3 9 C-2.12449766 5.94956551 -1.11644716 2.97017073 0 0 Z " fill="#1A274B" transform="translate(189,190)"/>
<path d="M0 0 C3.52291238 1.38400129 4.67645701 2.15698296 6.5 5.375 C0.78341664 5.83232667 -1.98649253 4.89773754 -6.5 1.375 C-3.5 -0.625 -3.5 -0.625 0 0 Z " fill="#DFDEDB" transform="translate(154.5,142.625)"/>
<path d="M0 0 C0.515625 0.70125 1.03125 1.4025 1.5625 2.125 C4.41939716 5.49467357 7.58871997 8.21156604 11 11 C10.01 11.33 9.02 11.66 8 12 C5.51953125 10.34765625 5.51953125 10.34765625 2.8125 8.0625 C1.91144531 7.31097656 1.01039062 6.55945313 0.08203125 5.78515625 C-0.60503906 5.19605469 -1.29210937 4.60695313 -2 4 C-1.34 3.67 -0.68 3.34 0 3 C0 2.01 0 1.02 0 0 Z " fill="#313131" transform="translate(117,104)"/>
<path d="M0 0 C0.33 0 0.66 0 1 0 C1.33 2.31 1.66 4.62 2 7 C3.32 6.67 4.64 6.34 6 6 C4.9024777 8.99324263 4.32317108 9.84610901 1.375 11.25 C0.59125 11.4975 -0.1925 11.745 -1 12 C-2.36884358 7.48281619 -1.47075246 4.41225737 0 0 Z M-1 8 C-0.67 8.66 -0.34 9.32 0 10 C0.33 9.34 0.66 8.68 1 8 C0.34 8 -0.32 8 -1 8 Z " fill="#3C477D" transform="translate(198,278)"/>
<path d="M0 0 C1.65 1.65 3.3 3.3 5 5 C4.34 6.65 3.68 8.3 3 10 C1.85073734 9.04578192 0.70569459 8.08647955 -0.4375 7.125 C-1.07558594 6.59132812 -1.71367187 6.05765625 -2.37109375 5.5078125 C-4 4 -4 4 -5 2 C-2.525 2.495 -2.525 2.495 0 3 C0 2.01 0 1.02 0 0 Z " fill="#121715" transform="translate(183,142)"/>
<path d="M0 0 C0.33 0.66 0.66 1.32 1 2 C-6.29840547 10.44646925 -6.29840547 10.44646925 -10 14 C-10.66 13.67 -11.32 13.34 -12 13 C-10.625 11 -10.625 11 -9 9 C-8.34 9 -7.68 9 -7 9 C-6.773125 8.443125 -6.54625 7.88625 -6.3125 7.3125 C-4.64103234 4.36753316 -2.44723648 2.31843456 0 0 Z " fill="#0A0F22" transform="translate(238,250)"/>
<path d="M0 0 C-1.68673918 4.49797113 -3.81673892 8.72886302 -6 13 C-6.99 12.34 -7.98 11.68 -9 11 C-8.40361667 9.72549553 -7.79752584 8.45553123 -7.1875 7.1875 C-6.85105469 6.47980469 -6.51460937 5.77210938 -6.16796875 5.04296875 C-3.28489484 0 -3.28489484 0 0 0 Z " fill="#1A1C21" transform="translate(219,161)"/>
<path d="M0 0 C2.40406344 3.39397191 2.09203815 6.17277503 1.4921875 10.09375 C0.85589793 12.55810962 -0.2487886 14.17264897 -2 16 C-2.20674944 10.21101581 -1.59162079 5.57067277 0 0 Z " fill="#111F40" transform="translate(169,276)"/>
<path d="M0 0 C1.65 1.32 3.3 2.64 5 4 C4.67 5.98 4.34 7.96 4 10 C2.02 8.35 0.04 6.7 -2 5 C-1.34 3.35 -0.68 1.7 0 0 Z " fill="#DADCDA" transform="translate(180,146)"/>
<path d="M0 0 C0.66 0.33 1.32 0.66 2 1 C2 1.66 2 2.32 2 3 C4.31 3.66 6.62 4.32 9 5 C9 5.99 9 6.98 9 8 C9.66 8 10.32 8 11 8 C10.67 8.66 10.34 9.32 10 10 C8.18381144 8.88096454 6.37214474 7.75458716 4.5625 6.625 C3.55316406 5.99851562 2.54382813 5.37203125 1.50390625 4.7265625 C-1 3 -1 3 -2 1 C-1.34 0.67 -0.68 0.34 0 0 Z " fill="#7A92D2" transform="translate(115,264)"/>
<path d="M0 0 C2.38825352 3.64429796 1.94295451 6.0693436 1.125 10.25 C0.92132813 11.32765625 0.71765625 12.4053125 0.5078125 13.515625 C0.34023437 14.33546875 0.17265625 15.1553125 0 16 C-0.99 16 -1.98 16 -3 16 C-2.40984815 10.49191603 -1.43336231 5.35121931 0 0 Z " fill="#4A63AB" transform="translate(209,204)"/>
<path d="M0 0 C0 0.99 0 1.98 0 3 C-1.8984375 4.82421875 -1.8984375 4.82421875 -4.375 6.6875 C-5.18710938 7.31011719 -5.99921875 7.93273437 -6.8359375 8.57421875 C-9 10 -9 10 -11 10 C-9.63088196 6.8510285 -8.1247864 4.9521513 -5.5 2.75 C-4.8915625 2.22921875 -4.283125 1.7084375 -3.65625 1.171875 C-2 0 -2 0 0 0 Z " fill="#2B2B2B" transform="translate(251,137)"/>
<path d="M0 0 C0.33 0 0.66 0 1 0 C1.25706972 5.91260345 0.2982126 11.23918159 -1 17 C-2.578125 15.87890625 -2.578125 15.87890625 -4 14 C-3.671875 11.15234375 -3.671875 11.15234375 -2.75 7.9375 C-2.45609375 6.87402344 -2.1621875 5.81054688 -1.859375 4.71484375 C-1 2 -1 2 0 0 Z " fill="#131F45" transform="translate(219,186)"/>
<path d="M0 0 C0.33 0 0.66 0 1 0 C1.04254356 1.99954746 1.04080783 4.00041636 1 6 C0.67 6.33 0.34 6.66 0 7 C-0.36760731 9.32817964 -0.70241581 11.6618385 -1 14 C-1.66 14 -2.32 14 -3 14 C-3.33 14.99 -3.66 15.98 -4 17 C-3.45018084 10.95198929 -2.09570426 5.69398894 0 0 Z " fill="#778ECA" transform="translate(178,251)"/>
<path d="M0 0 C0.33 0 0.66 0 1 0 C1.50146657 7.57771707 0.94998798 12.45783241 -3 19 C-4.35949488 14.92151537 -3.14486103 11.82319055 -2.0625 7.8125 C-1.86720703 7.06291016 -1.67191406 6.31332031 -1.47070312 5.54101562 C-0.98785625 3.69206541 -0.49489367 1.84576224 0 0 Z " fill="#3C4676" transform="translate(212,221)"/>
<path d="M0 0 C1.98 1.65 3.96 3.3 6 5 C5.67 5.99 5.34 6.98 5 8 C2.36 6.68 -0.28 5.36 -3 4 C-3 3.34 -3 2.68 -3 2 C-2.01 1.34 -1.02 0.68 0 0 Z " fill="#B1C0DC" transform="translate(170,128)"/>
<path d="M0 0 C2.02907167 3.3146667 2.12742133 5.4315979 1.625 9.25 C1.51414063 10.14203125 1.40328125 11.0340625 1.2890625 11.953125 C1.19367188 12.62859375 1.09828125 13.3040625 1 14 C-0.55078125 12.85546875 -0.55078125 12.85546875 -2 11 C-1.85546875 8.30078125 -1.85546875 8.30078125 -1.1875 5.3125 C-0.97480469 4.31863281 -0.76210937 3.32476562 -0.54296875 2.30078125 C-0.36378906 1.54152344 -0.18460938 0.78226563 0 0 Z " fill="#435A9D" transform="translate(200,242)"/>
<path d="M0 0 C0.33 0.99 0.66 1.98 1 3 C1.66 3 2.32 3 3 3 C2.8125 4.8125 2.8125 4.8125 2 7 C-0.5625 8.75 -0.5625 8.75 -3 10 C-2.39009109 6.44219804 -1.4216319 3.3171411 0 0 Z " fill="#455696" transform="translate(204,230)"/>
<path d="M0 0 C0.33 0 0.66 0 1 0 C0.91304042 2.60578866 0.80618592 5.2081279 0.6875 7.8125 C0.66494141 8.55048828 0.64238281 9.28847656 0.61914062 10.04882812 C0.3453392 15.54974762 0.3453392 15.54974762 -1.54296875 18.01171875 C-2.26419922 18.50091797 -2.26419922 18.50091797 -3 19 C-2.27637073 12.60794144 -1.19656638 6.31972924 0 0 Z " fill="#7387BE" transform="translate(93,181)"/>
<path d="M0 0 C2.30163882 3.45245824 2.34490322 4.94738713 2 9 C1.34 9.66 0.68 10.32 0 11 C-2.21538462 5.70769231 -2.21538462 5.70769231 -1.125 2.125 C-0.75375 1.42375 -0.3825 0.7225 0 0 Z " fill="#C3CDDB" transform="translate(198,117)"/>
<path d="M0 0 C4.75 0.75 4.75 0.75 7 3 C2.25 7 2.25 7 0 7 C0 4.69 0 2.38 0 0 Z " fill="#CFD7EC" transform="translate(129,96)"/>
<path d="M0 0 C2.33936818 2.12669835 3.80653848 4.06224856 5 7 C5 7.99 5 8.98 5 10 C4.34 10 3.68 10 3 10 C1.7109375 8.25 1.7109375 8.25 0.375 6 C-0.07101563 5.2575 -0.51703125 4.515 -0.9765625 3.75 C-1.31429687 3.1725 -1.65203125 2.595 -2 2 C-1.34 2 -0.68 2 0 2 C0 1.34 0 0.68 0 0 Z " fill="#ACAFB8" transform="translate(190,158)"/>
<path d="M0 0 C0.66 0 1.32 0 2 0 C2 0.66 2 1.32 2 2 C2.66 2.33 3.32 2.66 4 3 C2.8803014 4.00593243 1.7540588 5.0045849 0.625 6 C-0.00148438 6.556875 -0.62796875 7.11375 -1.2734375 7.6875 C-3 9 -3 9 -5 9 C-3.626187 6.04101816 -1.96773278 3.59382957 0 1 C0 0.67 0 0.34 0 0 Z " fill="#2F2F2F" transform="translate(270,121)"/>
<path d="M0 0 C0.97792207 3.18565522 1.04657813 5.81321089 0.75 9.125 C0.68296875 9.99382812 0.6159375 10.86265625 0.546875 11.7578125 C0 14 0 14 -3 16 C-2.40984815 10.49191603 -1.43336231 5.35121931 0 0 Z " fill="#7487BF" transform="translate(181,234)"/>
<path d="M0 0 C0.99 0.33 1.98 0.66 3 1 C2.34 4.3 1.68 7.6 1 11 C0.01 11.33 -0.98 11.66 -2 12 C-1.33333333 8 -0.66666667 4 0 0 Z " fill="#191F41" transform="translate(180,226)"/>
<path d="M0 0 C4.29238623 1.65091778 6.8793915 4.73754566 10 8 C9.67 8.99 9.34 9.98 9 11 C7.5 9.625 7.5 9.625 6 8 C6 7.34 6 6.68 6 6 C5.34 6 4.68 6 4 6 C4 5.34 4 4.68 4 4 C3.34 4 2.68 4 2 4 C2 3.34 2 2.68 2 2 C1.34 2 0.68 2 0 2 C0 1.34 0 0.68 0 0 Z " fill="#D9E0ED" transform="translate(170,124)"/>
<path d="M0 0 C1.34173403 0.92543709 2.67320159 1.86577405 4 2.8125 C5.11375 3.59560547 5.11375 3.59560547 6.25 4.39453125 C6.8275 4.92433594 7.405 5.45414062 8 6 C8 6.99 8 7.98 8 9 C3.15544041 6.62176166 3.15544041 6.62176166 1 5 C0.0625 2.25 0.0625 2.25 0 0 Z " fill="#E0E9E8" transform="translate(147,102)"/>
<path d="M0 0 C1.32 0.66 2.64 1.32 4 2 C2.55540356 5.73187415 2.55540356 5.73187415 0.1875 6.875 C-2.62762177 7.0358641 -4.476506 6.19164995 -7 5 C-3.98968256 4.06576355 -3.13349732 3.95550089 0 5 C-0.33 4.01 -0.66 3.02 -1 2 C-0.67 1.34 -0.34 0.68 0 0 Z " fill="#7891C8" transform="translate(168,290)"/>
<path d="M0 0 C0.66 0 1.32 0 2 0 C1.14285714 8.57142857 1.14285714 8.57142857 -1 12 C-1.66 9.69 -2.32 7.38 -3 5 C-2.34 4.67 -1.68 4.34 -1 4 C-0.34786708 1.97536745 -0.34786708 1.97536745 0 0 Z " fill="#3D4A7C" transform="translate(213,200)"/>
<path d="M0 0 C0.66 0.33 1.32 0.66 2 1 C1.34 2.32 0.68 3.64 0 5 C-0.99 5 -1.98 5 -3 5 C-3.33 6.32 -3.66 7.64 -4 9 C-4.99 8.67 -5.98 8.34 -7 8 C-5.9024777 5.00675737 -5.32317108 4.15389099 -2.375 2.75 C-1.59125 2.5025 -0.8075 2.255 0 2 C0 1.34 0 0.68 0 0 Z " fill="#010307" transform="translate(230,168)"/>
<path d="M0 0 C0 3 0 3 -1.6875 5 C-4.02804738 7.02425719 -6.23162982 8.61581491 -9 10 C-9.66 9.67 -10.32 9.34 -11 9 C-9.6875 7.5 -9.6875 7.5 -8 6 C-7.01 6 -6.02 6 -5 6 C-4.731875 5.38125 -4.46375 4.7625 -4.1875 4.125 C-3 2 -3 2 0 0 Z " fill="#495DA6" transform="translate(243,167)"/>
<path d="M0 0 C0.66 0.33 1.32 0.66 2 1 C-0.125 3.5625 -0.125 3.5625 -3 6 C-6.3125 5.8125 -6.3125 5.8125 -9 5 C-8.443125 4.731875 -7.88625 4.46375 -7.3125 4.1875 C-4.90178463 2.99670459 -4.90178463 2.99670459 -2.375 1.3125 C-1.59125 0.879375 -0.8075 0.44625 0 0 Z " fill="#495DA8" transform="translate(229,178)"/>
<path d="M0 0 C1.423125 0.495 1.423125 0.495 2.875 1 C5.77062452 2.10159191 5.77062452 2.10159191 8 2 C8 2.66 8 3.32 8 4 C6.35 4.66 4.7 5.32 3 6 C3 5.01 3 4.02 3 3 C2.01 3.33 1.02 3.66 0 4 C-0.66 3.34 -1.32 2.68 -2 2 C-1.34 1.34 -0.68 0.68 0 0 Z " fill="#020303" transform="translate(178,164)"/>
<path d="M0 0 C-1.15173355 2.46800047 -2.04783565 4.04783565 -4 6 C-5.98821313 6.39764263 -7.98944339 6.73775349 -10 7 C-3.18421053 0 -3.18421053 0 0 0 Z " fill="#2D2D2D" transform="translate(237,155)"/>
<path d="M0 0 C0.66 0.33 1.32 0.66 2 1 C0.92807816 2.3218362 -0.15802695 3.63217927 -1.25 4.9375 C-1.85328125 5.66839844 -2.4565625 6.39929688 -3.078125 7.15234375 C-5.10741134 9.10326334 -6.254407 9.61731779 -9 10 C-6.1310659 6.49352499 -3.2682346 3.14718888 0 0 Z " fill="#0D1021" transform="translate(208,280)"/>
<path d="M0 0 C0.33 0 0.66 0 1 0 C1 4.62 1 9.24 1 14 C0.01 13.67 -0.98 13.34 -2 13 C-1.34 8.71 -0.68 4.42 0 0 Z " fill="#7F95D5" transform="translate(187,206)"/>
<path d="M0 0 C0.33 0 0.66 0 1 0 C0.47462276 5.0302076 -0.10594786 10.01885239 -1 15 C-1.33 15 -1.66 15 -2 15 C-3.2019586 8.77166905 -2.93161919 5.62870885 0 0 Z " fill="#11132E" transform="translate(96,163)"/>
<path d="M0 0 C1.98 0.99 1.98 0.99 4 2 C3.67 3.65 3.34 5.3 3 7 C2.01 6.67 1.02 6.34 0 6 C0 4.02 0 2.04 0 0 Z " fill="#EAEAEA" transform="translate(118,101)"/>
<path d="M0 0 C4.35535069 1.16142685 6.64619703 2.07699505 9 6 C8.67 6.66 8.34 7.32 8 8 C6.66372225 6.85760183 5.33104612 5.71098945 4 4.5625 C3.2575 3.92441406 2.515 3.28632813 1.75 2.62890625 C1.1725 2.09136719 0.595 1.55382812 0 1 C0 0.67 0 0.34 0 0 Z " fill="#7B8DCB" transform="translate(92,248)"/>
<path d="M0 0 C0.99 0.495 0.99 0.495 2 1 C2.99 0.67 3.98 0.34 5 0 C3.125 5.75 3.125 5.75 2 8 C1.34 8 0.68 8 0 8 C0 5.36 0 2.72 0 0 Z " fill="#959CA3" transform="translate(203,164)"/>
<path d="M0 0 C0.99 0.33 1.98 0.66 3 1 C1.68 3.31 0.36 5.62 -1 8 C-1.99 7.34 -2.98 6.68 -4 6 C-2.68 4.02 -1.36 2.04 0 0 Z " fill="#2C2C2C" transform="translate(213,155)"/>
<path d="M0 0 C0.66 0 1.32 0 2 0 C2 0.99 2 1.98 2 3 C3.32 3.33 4.64 3.66 6 4 C5.67 5.32 5.34 6.64 5 8 C4.67 7.01 4.34 6.02 4 5 C2.02 5.66 0.04 6.32 -2 7 C-1.67 6.030625 -1.34 5.06125 -1 4.0625 C0.05173363 1.37850426 0.05173363 1.37850426 0 0 Z " fill="#313131" transform="translate(264,113)"/>
<path d="M0 0 C2.26185454 2.26185454 3.03921617 3.96983561 4 7 C3.67 7.99 3.34 8.98 3 10 C0.9375 7.8125 0.9375 7.8125 -1 5 C-0.75 2.1875 -0.75 2.1875 0 0 Z " fill="#7A8FCC" transform="translate(83,234)"/>
<path d="M0 0 C0.33 0 0.66 0 1 0 C1 2.31 1 4.62 1 7 C2.32 7.33 3.64 7.66 5 8 C3.02 8 1.04 8 -1 8 C-1.93065133 5.39417629 -2.14917407 4.35801776 -1.0625 1.75 C-0.711875 1.1725 -0.36125 0.595 0 0 Z " fill="#9CA5B2" transform="translate(215,167)"/>
<path d="M0 0 C0.66 0.66 1.32 1.32 2 2 C1.625 5.125 1.625 5.125 1 8 C0.01 8.33 -0.98 8.66 -2 9 C-1.51421457 5.87709365 -1.0013988 3.00419641 0 0 Z " fill="#B7BBC6" transform="translate(210,164)"/>
<path d="M0 0 C1.65 1.65 3.3 3.3 5 5 C4.67 5.99 4.34 6.98 4 8 C2.02 5.69 0.04 3.38 -2 1 C-1.34 0.67 -0.68 0.34 0 0 Z " fill="#A3A8B5" transform="translate(185,161)"/>
<path d="M0 0 C1.98 0.495 1.98 0.495 4 1 C3.67 2.32 3.34 3.64 3 5 C1.68 5 0.36 5 -1 5 C-0.67 3.35 -0.34 1.7 0 0 Z " fill="#080A0D" transform="translate(149,122)"/>
<path d="M0 0 C1.98 0 3.96 0 6 0 C5.01 1.485 5.01 1.485 4 3 C3.34 2.67 2.68 2.34 2 2 C1.67 4.31 1.34 6.62 1 9 C0.67 9 0.34 9 0 9 C0 6.03 0 3.06 0 0 Z " fill="#091224" transform="translate(105,113)"/>
<path d="M0 0 C3.99500618 1.3697164 6.80009492 3.25722422 10 6 C6.28111761 5.49287967 3.26545761 4.88391785 0 3 C0 2.01 0 1.02 0 0 Z " fill="#7A8DCB" transform="translate(169,164)"/>
<path d="M0 0 C2.31 0 4.62 0 7 0 C6.67 1.65 6.34 3.3 6 5 C4.02 4.01 2.04 3.02 0 2 C0 1.34 0 0.68 0 0 Z " fill="#E1E1DF" transform="translate(155,147)"/>
<path d="M0 0 C1.32 0.66 2.64 1.32 4 2 C3.67 2.99 3.34 3.98 3 5 C2.01 5 1.02 5 0 5 C-0.33 5.66 -0.66 6.32 -1 7 C-0.67 4.69 -0.34 2.38 0 0 Z " fill="#7C8FC8" transform="translate(107,115)"/>
<path d="M0 0 C2.0625 0.4375 2.0625 0.4375 4 1 C2.1875 3 2.1875 3 0 5 C-0.99 5 -1.98 5 -3 5 C-1.125 1.125 -1.125 1.125 0 0 Z " fill="#8295DF" transform="translate(233,171)"/>
<path d="M0 0 C2.1875 -0.375 2.1875 -0.375 5 0 C6.99022836 1.83961648 8.38989899 3.79186148 10 6 C6.00499382 4.6302836 3.19990508 2.74277578 0 0 Z " fill="#BCBDC0" transform="translate(172,159)"/>
<path d="M0 0 C0.33 0.99 0.66 1.98 1 3 C-1.97 5.475 -1.97 5.475 -5 8 C-5 5 -5 5 -2.5 2.3125 C-1.675 1.549375 -0.85 0.78625 0 0 Z " fill="#111111" transform="translate(220,148)"/>
<path d="M0 0 C3.25543229 0.34879632 4.01873107 1.02133261 6.25 3.5625 C6.8275 4.366875 7.405 5.17125 8 6 C7.01 6 6.02 6 5 6 C5 5.34 5 4.68 5 4 C2.525 3.01 2.525 3.01 0 2 C0 1.34 0 0.68 0 0 Z " fill="#E6F0F8" transform="translate(156,111)"/>
<path d="M0 0 C2.60018816 3.90028225 2.15085514 7.47434569 2 12 C0.35130334 9.03234602 -0.56734434 6.37471415 -1 3 C-0.67 2.01 -0.34 1.02 0 0 Z " fill="#DCE3EB" transform="translate(196,106)"/>
<path d="M0 0 C3.375 0.25 3.375 0.25 7 1 C8.4375 3.0625 8.4375 3.0625 9 5 C5.54074837 3.7508258 2.85306797 2.32472205 0 0 Z " fill="#7F8AC6" transform="translate(148,287)"/>
<path d="M0 0 C0.66 0.33 1.32 0.66 2 1 C1.34 4.63 0.68 8.26 0 12 C-0.33 12 -0.66 12 -1 12 C-1.02687279 10.18757948 -1.04633715 8.37504767 -1.0625 6.5625 C-1.07410156 5.55316406 -1.08570313 4.54382813 -1.09765625 3.50390625 C-1 1 -1 1 0 0 Z " fill="#3C4B82" transform="translate(202,244)"/>
<path d="M0 0 C0.99 0.66 1.98 1.32 3 2 C2.34 2.66 1.68 3.32 1 4 C1 4.99 1 5.98 1 7 C-0.65 5.68 -2.3 4.36 -4 3 C-3.01 2.67 -2.02 2.34 -1 2 C-0.67 1.34 -0.34 0.68 0 0 Z " fill="#131527" transform="translate(176,162)"/>
<path d="M0 0 C3.79588866 0.54226981 5.47211993 2.20127563 8 5 C7.01 5.495 7.01 5.495 6 6 C3.00306862 5.00102287 1.97290587 4.34869747 0 2 C0 1.34 0 0.68 0 0 Z " fill="#879DD2" transform="translate(126,134)"/>
<path d="M0 0 C-0.33 2.31 -0.66 4.62 -1 7 C-1.66 6.67 -2.32 6.34 -3 6 C-3.625 3.4375 -3.625 3.4375 -4 1 C-2 0 -2 0 0 0 Z " fill="#404F88" transform="translate(198,269)"/>
<path d="M0 0 C2.88575819 0.39803561 3.82189513 0.79009069 5.75 3.0625 C6.1625 3.701875 6.575 4.34125 7 5 C4.03824877 4.38722388 2.61941217 3.74627478 0 2 C0 1.34 0 0.68 0 0 Z " fill="#363632" transform="translate(154,143)"/>
<path d="M0 0 C0.33 0 0.66 0 1 0 C1 1.65 1 3.3 1 5 C0.01 5.495 0.01 5.495 -1 6 C-0.67 4.02 -0.34 2.04 0 0 Z " fill="#000001" transform="translate(257,231)"/>
<path d="M0 0 C1.485 0.99 1.485 0.99 3 2 C2.67 2.66 2.34 3.32 2 4 C1.34 2.68 0.68 1.36 0 0 Z " fill="#000000" transform="translate(76,243)"/>
<path d="" fill="#000000" transform="translate(0,0)"/>
<path d="" fill="#000000" transform="translate(0,0)"/>
<path d="" fill="#000000" transform="translate(0,0)"/>
<path d="" fill="#020204" transform="translate(0,0)"/>
<path d="" fill="#000100" transform="translate(0,0)"/>
<path d="" fill="#010101" transform="translate(0,0)"/>
</svg>
